<svg width="96" height="16" viewBox="0 0 96 16" fill="none" xmlns="http://www.w3.org/2000/svg">
<path d="M6.95816 0.742031C7.27942 -0.246693 8.6782 -0.246692 8.99945 0.742031L10.1473 4.27469C10.291 4.71686 10.703 5.01623 11.1679 5.01623H14.8824C15.922 5.01623 16.3542 6.34655 15.5132 6.95762L12.5081 9.14092C12.132 9.4142 11.9746 9.89859 12.1183 10.3408L13.2661 13.8734C13.5874 14.8621 12.4557 15.6843 11.6147 15.0733L8.6096 12.89C8.23347 12.6167 7.72415 12.6167 7.34801 12.89L4.34295 15.0733C3.5019 15.6843 2.37026 14.8621 2.69151 13.8734L3.83935 10.3408C3.98302 9.89859 3.82563 9.4142 3.44949 9.14092L0.444434 6.95762C-0.396625 6.34655 0.0356224 5.01623 1.07523 5.01623H4.78969C5.25461 5.01623 5.66666 4.71686 5.81033 4.27469L6.95816 0.742031Z" fill="#F59E0B"/>
<path d="M26.9152 0.742031C27.2364 -0.246693 28.6352 -0.246692 28.9565 0.742031L30.1043 4.27469C30.248 4.71686 30.66 5.01623 31.125 5.01623H34.8394C35.879 5.01623 36.3113 6.34655 35.4702 6.95762L32.4652 9.14092C32.089 9.4142 31.9316 9.89859 32.0753 10.3408L33.2231 13.8734C33.5444 14.8621 32.4128 15.6843 31.5717 15.0733L28.5666 12.89C28.1905 12.6167 27.6812 12.6167 27.305 12.89L24.3 15.0733C23.4589 15.6843 22.3273 14.8621 22.6485 13.8734L23.7964 10.3408C23.94 9.89859 23.7827 9.4142 23.4065 9.14092L20.4015 6.95762C19.5604 6.34655 19.9927 5.01623 21.0323 5.01623H24.7467C25.2116 5.01623 25.6237 4.71686 25.7674 4.27469L26.9152 0.742031Z" fill="#F59E0B"/>
<path d="M46.8722 0.742031C47.1935 -0.246693 48.5923 -0.246692 48.9135 0.742031L50.0613 4.27469C50.205 4.71686 50.6171 5.01623 51.082 5.01623H54.7965C55.8361 5.01623 56.2683 6.34655 55.4272 6.95762L52.4222 9.14092C52.0461 9.4142 51.8887 9.89859 52.0323 10.3408L53.1802 13.8734C53.5014 14.8621 52.3698 15.6843 51.5287 15.0733L48.5237 12.89C48.1475 12.6167 47.6382 12.6167 47.2621 12.89L44.257 15.0733C43.416 15.6843 42.2843 14.8621 42.6056 13.8734L43.7534 10.3408C43.8971 9.89859 43.7397 9.4142 43.3636 9.14092L40.3585 6.95762C39.5174 6.34655 39.9497 5.01623 40.9893 5.01623H44.7037C45.1687 5.01623 45.5807 4.71686 45.7244 4.27469L46.8722 0.742031Z" fill="#F59E0B"/>
<path d="M66.8312 0.742031C67.1525 -0.246693 68.5512 -0.246692 68.8725 0.742031L70.0203 4.27469C70.164 4.71686 70.5761 5.01623 71.041 5.01623H74.7554C75.795 5.01623 76.2273 6.34655 75.3862 6.95762L72.3812 9.14092C72.005 9.4142 71.8476 9.89859 71.9913 10.3408L73.1391 13.8734C73.4604 14.8621 72.3288 15.6843 71.4877 15.0733L68.4826 12.89C68.1065 12.6167 67.5972 12.6167 67.2211 12.89L64.216 15.0733C63.3749 15.6843 62.2433 14.8621 62.5646 13.8734L63.7124 10.3408C63.8561 9.89859 63.6987 9.4142 63.3225 9.14092L60.3175 6.95762C59.4764 6.34655 59.9087 5.01623 60.9483 5.01623H64.6627C65.1277 5.01623 65.5397 4.71686 65.6834 4.27469L66.8312 0.742031Z" fill="#F59E0B"/>
<path d="M86.7882 0.742031C87.1095 -0.246693 88.5083 -0.246692 88.8295 0.742031L89.9774 4.27469C90.121 4.71686 90.5331 5.01623 90.998 5.01623H94.7125C95.7521 5.01623 96.1843 6.34655 95.3433 6.95762L92.3382 9.14092C91.9621 9.4142 91.8047 9.89859 91.9483 10.3408L93.0962 13.8734C93.4174 14.8621 92.2858 15.6843 91.4447 15.0733L88.4397 12.89C88.0635 12.6167 87.5542 12.6167 87.1781 12.89L84.173 15.0733C83.332 15.6843 82.2003 14.8621 82.5216 13.8734L83.6694 10.3408C83.8131 9.89859 83.6557 9.4142 83.2796 9.14092L80.2745 6.95762C79.4335 6.34655 79.8657 5.01623 80.9053 5.01623H84.6198C85.0847 5.01623 85.4967 4.71686 85.6404 4.27469L86.7882 0.742031Z" fill="#F59E0B"/>
</svg>
