<svg width="15" height="16" viewBox="0 0 15 16" fill="none" xmlns="http://www.w3.org/2000/svg">
<path d="M5.82148 4.74553L6.17538 5.40679L5.82148 4.74553C5.28497 5.03266 4.95005 5.59178 4.95005 6.20029V9.80029C4.95005 10.4088 5.28497 10.9679 5.82148 11.2551C6.35799 11.5422 7.00899 11.5107 7.5153 11.1732L10.2153 9.37318C10.6743 9.06716 10.95 8.55198 10.95 8.00029C10.95 7.44861 10.6743 6.93343 10.2153 6.62741L7.5153 4.82741C7.00899 4.48987 6.35799 4.4584 5.82148 4.74553ZM13.95 8.00029C13.95 11.5625 11.0623 14.4503 7.50005 14.4503C3.93781 14.4503 1.05005 11.5625 1.05005 8.00029C1.05005 4.43806 3.93781 1.55029 7.50005 1.55029C11.0623 1.55029 13.95 4.43806 13.95 8.00029Z" fill="#12141D" stroke="#12141D" stroke-width="1.5"/>
</svg>
