<svg width="123" height="31" viewBox="0 0 123 31" fill="none" xmlns="http://www.w3.org/2000/svg">
<path d="M32.3291 10.7017H44.7726V13.0182H39.8731V26.0767H37.1876V13.0182H32.3086L32.3291 10.7017ZM44.2396 14.9452H46.5356V17.0977H46.5766C46.6586 16.7902 46.8021 16.5032 47.0071 16.2162C47.2121 15.9292 47.4581 15.6627 47.7656 15.4372C48.0526 15.1912 48.3806 15.0067 48.7496 14.8632C49.0981 14.7197 49.4671 14.6377 49.8361 14.6377C50.1231 14.6377 50.3281 14.6582 50.4306 14.6582C50.5331 14.6787 50.6561 14.6992 50.7586 14.6992V17.0567C50.5946 17.0157 50.4101 16.9952 50.2256 16.9747C50.0411 16.9542 49.8771 16.9337 49.6926 16.9337C49.2826 16.9337 48.8931 17.0157 48.5241 17.1797C48.1551 17.3437 47.8476 17.5897 47.5606 17.8972C47.2941 18.2252 47.0686 18.6147 46.9046 19.0862C46.7406 19.5577 46.6586 20.1112 46.6586 20.7262V26.0152H44.1986L44.2396 14.9452ZM62.0336 26.0767H59.6146V24.5187H59.5736C59.2661 25.0927 58.8151 25.5232 58.2206 25.8717C57.6261 26.2202 57.0111 26.3842 56.3961 26.3842C54.9406 26.3842 53.8746 26.0357 53.2186 25.2977C52.5626 24.5802 52.2346 23.4732 52.2346 22.0177V14.9452H54.6946V21.7717C54.6946 22.7557 54.8791 23.4527 55.2686 23.8422C55.6376 24.2522 56.1706 24.4572 56.8471 24.4572C57.3596 24.4572 57.7901 24.3752 58.1386 24.2112C58.4871 24.0472 58.7741 23.8422 58.9791 23.5757C59.2046 23.3092 59.3481 22.9812 59.4506 22.6122C59.5531 22.2432 59.5941 21.8332 59.5941 21.4027V14.9452H62.0541V26.0767H62.0336ZM66.2156 22.5097C66.2976 23.2272 66.5641 23.7192 67.0356 24.0267C67.5071 24.3137 68.0811 24.4572 68.7371 24.4572C68.9626 24.4572 69.2291 24.4367 69.5161 24.3957C69.8031 24.3547 70.0901 24.2932 70.3361 24.1907C70.6026 24.0882 70.8076 23.9447 70.9716 23.7397C71.1356 23.5347 71.2176 23.2887 71.1971 22.9812C71.1766 22.6737 71.0741 22.4072 70.8486 22.2022C70.6231 21.9972 70.3566 21.8537 70.0286 21.7102C69.7006 21.5872 69.3111 21.4847 68.8806 21.4027C68.4501 21.3207 68.0196 21.2182 67.5686 21.1157C67.1176 21.0132 66.6666 20.8902 66.2361 20.7467C65.8056 20.6032 65.4366 20.4187 65.0881 20.1522C64.7601 19.9062 64.4731 19.5987 64.2886 19.2092C64.0836 18.8197 63.9811 18.3687 63.9811 17.7947C63.9811 17.1797 64.1246 16.6877 64.4321 16.2777C64.7191 15.8677 65.1086 15.5397 65.5596 15.2937C66.0106 15.0477 66.5231 14.8632 67.0766 14.7607C67.6301 14.6582 68.1631 14.6172 68.6551 14.6172C69.2291 14.6172 69.7826 14.6787 70.2951 14.8017C70.8076 14.9247 71.2996 15.1092 71.7096 15.3962C72.1401 15.6627 72.4886 16.0317 72.7551 16.4622C73.0421 16.8927 73.2061 17.4257 73.2881 18.0407H70.7256C70.6026 17.4462 70.3361 17.0567 69.9261 16.8517C69.4956 16.6467 69.0241 16.5442 68.4706 16.5442C68.3066 16.5442 68.0811 16.5647 67.8556 16.5852C67.6096 16.6262 67.4046 16.6672 67.1791 16.7492C66.9741 16.8312 66.7896 16.9542 66.6461 17.0977C66.5026 17.2412 66.4206 17.4462 66.4206 17.6922C66.4206 17.9997 66.5231 18.2252 66.7281 18.4097C66.9331 18.5942 67.1996 18.7377 67.5481 18.8812C67.8761 19.0042 68.2656 19.1067 68.6961 19.1887C69.1266 19.2707 69.5776 19.3732 70.0286 19.4757C70.4796 19.5782 70.9101 19.7012 71.3406 19.8447C71.7711 19.9882 72.1606 20.1727 72.4886 20.4392C72.8166 20.6852 73.1036 20.9927 73.3086 21.3617C73.5136 21.7307 73.6161 22.2022 73.6161 22.7352C73.6161 23.3912 73.4726 23.9447 73.1651 24.4162C72.8576 24.8672 72.4681 25.2567 71.9966 25.5437C71.5251 25.8307 70.9716 26.0357 70.3976 26.1792C69.8031 26.3022 69.2291 26.3842 68.6551 26.3842C67.9581 26.3842 67.3021 26.3022 66.7076 26.1382C66.1131 25.9742 65.5801 25.7282 65.1496 25.4207C64.7191 25.0927 64.3706 24.7032 64.1246 24.2112C63.8786 23.7397 63.7351 23.1657 63.7146 22.4892H66.1951V22.5097H66.2156ZM74.3131 14.9452H76.1786V11.5832H78.6386V14.9247H80.8526V16.7492H78.6386V22.6942C78.6386 22.9607 78.6591 23.1657 78.6796 23.3707C78.7001 23.5552 78.7616 23.7192 78.8231 23.8422C78.9051 23.9652 79.0281 24.0677 79.1716 24.1292C79.3356 24.1907 79.5406 24.2317 79.8276 24.2317C79.9916 24.2317 80.1761 24.2317 80.3401 24.2112C80.5041 24.1907 80.6886 24.1702 80.8526 24.1292V26.0357C80.5861 26.0767 80.3196 26.0972 80.0531 26.1177C79.7866 26.1587 79.5406 26.1587 79.2536 26.1587C78.5976 26.1587 78.0851 26.0972 77.6956 25.9742C77.3061 25.8512 76.9986 25.6667 76.7731 25.4412C76.5476 25.1952 76.4041 24.9082 76.3221 24.5597C76.2401 24.2112 76.1991 23.7807 76.1786 23.3297V16.7697H74.3131V14.9042V14.9452ZM82.5746 14.9452H84.8911V16.4622H84.9321C85.2806 15.8062 85.7521 15.3552 86.3671 15.0682C86.9821 14.7812 87.6381 14.6377 88.3761 14.6377C89.2576 14.6377 90.0161 14.7812 90.6721 15.1092C91.3281 15.4167 91.8611 15.8267 92.2916 16.3802C92.7221 16.9132 93.0501 17.5487 93.2551 18.2662C93.4601 18.9837 93.5831 19.7627 93.5831 20.5622C93.5831 21.3207 93.4806 22.0382 93.2961 22.7352C93.0911 23.4322 92.8041 24.0677 92.4146 24.6007C92.0251 25.1337 91.5331 25.5641 90.9181 25.8921C90.3031 26.2201 89.6061 26.3842 88.7861 26.3842C88.4376 26.3842 88.0686 26.3432 87.7201 26.2817C87.3716 26.2202 87.0231 26.1177 86.6951 25.9742C86.3671 25.8307 86.0596 25.6462 85.7931 25.4207C85.5061 25.1952 85.2806 24.9287 85.0961 24.6417H85.0551V30.1971H82.5951V14.9452H82.5746ZM91.1641 20.5212C91.1641 20.0292 91.1026 19.5372 90.9591 19.0657C90.8361 18.5942 90.6311 18.1842 90.3646 17.8152C90.0981 17.4462 89.7701 17.1592 89.4011 16.9337C89.0116 16.7082 88.5606 16.6057 88.0686 16.6057C87.0436 16.6057 86.2646 16.9542 85.7316 17.6717C85.2191 18.3892 84.9526 19.3527 84.9526 20.5417C84.9526 21.1157 85.0141 21.6282 85.1576 22.0997C85.3011 22.5712 85.4856 22.9812 85.7726 23.3297C86.0391 23.6782 86.3671 23.9447 86.7566 24.1497C87.1461 24.3547 87.5766 24.4572 88.0891 24.4572C88.6631 24.4572 89.1141 24.3342 89.5036 24.1087C89.8931 23.8832 90.2006 23.5757 90.4671 23.2272C90.7131 22.8582 90.8976 22.4482 91.0001 21.9767C91.1026 21.4847 91.1641 21.0132 91.1641 20.5212ZM95.4896 10.7017H97.9496V13.0182H95.4896V10.7017ZM95.4896 14.9452H97.9496V26.0767H95.4896V14.9452ZM100.143 10.7017H102.603V26.0767H100.143V10.7017ZM110.106 26.3842C109.225 26.3842 108.425 26.2407 107.728 25.9332C107.031 25.6257 106.457 25.2362 105.965 24.7237C105.494 24.2112 105.125 23.5757 104.879 22.8582C104.633 22.1407 104.489 21.3412 104.489 20.5007C104.489 19.6602 104.612 18.8812 104.879 18.1637C105.125 17.4462 105.494 16.8312 105.965 16.2982C106.437 15.7857 107.031 15.3757 107.728 15.0887C108.425 14.8017 109.225 14.6377 110.106 14.6377C110.988 14.6377 111.787 14.7812 112.484 15.0887C113.181 15.3757 113.755 15.7857 114.247 16.2982C114.719 16.8107 115.088 17.4462 115.334 18.1637C115.58 18.8812 115.723 19.6602 115.723 20.5007C115.723 21.3617 115.6 22.1407 115.334 22.8582C115.067 23.5757 114.719 24.1907 114.247 24.7237C113.776 25.2362 113.181 25.6462 112.484 25.9332C111.787 26.2202 111.008 26.3842 110.106 26.3842ZM110.106 24.4367C110.639 24.4367 111.131 24.3137 111.521 24.0882C111.931 23.8627 112.238 23.5552 112.505 23.1862C112.771 22.8172 112.956 22.3867 113.079 21.9357C113.202 21.4642 113.263 20.9927 113.263 20.5007C113.263 20.0292 113.202 19.5577 113.079 19.0862C112.956 18.6147 112.771 18.2047 112.505 17.8357C112.238 17.4667 111.91 17.1797 111.521 16.9542C111.111 16.7287 110.639 16.6057 110.106 16.6057C109.573 16.6057 109.081 16.7287 108.692 16.9542C108.282 17.1797 107.974 17.4872 107.708 17.8357C107.441 18.2047 107.257 18.6147 107.134 19.0862C107.011 19.5577 106.949 20.0292 106.949 20.5007C106.949 20.9927 107.011 21.4642 107.134 21.9357C107.257 22.4072 107.441 22.8172 107.708 23.1862C107.974 23.5552 108.302 23.8627 108.692 24.0882C109.102 24.3342 109.573 24.4367 110.106 24.4367ZM116.461 14.9452H118.327V11.5832H120.787V14.9247H123.001V16.7492H120.787V22.6942C120.787 22.9607 120.807 23.1657 120.828 23.3707C120.848 23.5552 120.91 23.7192 120.971 23.8422C121.053 23.9652 121.176 24.0677 121.32 24.1292C121.484 24.1907 121.689 24.2317 121.976 24.2317C122.14 24.2317 122.324 24.2317 122.488 24.2112C122.652 24.1907 122.837 24.1702 123.001 24.1292V26.0357C122.734 26.0767 122.468 26.0972 122.201 26.1177C121.935 26.1587 121.689 26.1587 121.402 26.1587C120.746 26.1587 120.233 26.0972 119.844 25.9742C119.454 25.8512 119.147 25.6667 118.921 25.4412C118.696 25.1952 118.552 24.9082 118.47 24.5597C118.388 24.2112 118.347 23.7807 118.327 23.3297V16.7697H116.461V14.9042V14.9452Z" fill="black"/>
<path d="M29.4585 10.7015H18.204L14.7395 0.000488281L11.2545 10.7015L0 10.681L9.10199 17.3025L5.617 28.0035L14.719 21.382L23.821 28.0035L20.3565 17.3025L29.4585 10.7015Z" fill="#00B67A"/>
<path d="M21.1362 19.7212L20.3572 17.3022L14.7402 21.3817L21.1362 19.7212Z" fill="#005128"/>
</svg>
